<svg data-name="Layer 2" viewBox="0 0 2010 2010" xmlns="http://www.w3.org/2000/svg" xmlns:xlink="http://www.w3.org/1999/xlink"><defs><linearGradient gradientUnits="userSpaceOnUse" id="a" x1="1753.42" x2="704.33" y1="263.64" y2="1930.07"><stop offset="0" stop-color="#69bbff" class="stop-color-69bbff"></stop><stop offset="1" stop-color="#9de0f4" class="stop-color-9de0f4"></stop></linearGradient><linearGradient id="c" x1="1045.86" x2="-3.23" xlink:href="#a" y1="-181.8" y2="1484.63"></linearGradient><linearGradient id="d" x1="1352.89" x2="936.36" xlink:href="#a" y1="540.38" y2="1937.77"></linearGradient><linearGradient gradientUnits="userSpaceOnUse" id="b" x1="1654.33" x2="642.12" y1="-84.22" y2="1931.25"><stop offset="0" stop-color="#69bbff" class="stop-color-69bbff"></stop><stop offset="1" stop-color="#1798ff" class="stop-color-1798ff"></stop></linearGradient><linearGradient gradientUnits="userSpaceOnUse" id="e" x1="1359.7" x2="432.53" y1="410.36" y2="1796.55"><stop offset=".06" stop-color="#9ad0ed" class="stop-color-ffe578"></stop><stop offset="1" stop-color="#0baeff" class="stop-color-fff100"></stop></linearGradient><linearGradient gradientUnits="userSpaceOnUse" id="f" x1="1513.19" x2="178.21" y1="178.82" y2="2174.73"><stop offset=".06" stop-color="#0baeff" class="stop-color-ff6800"></stop><stop offset="1" stop-color="#0baeff" class="stop-color-fff100"></stop></linearGradient><linearGradient id="g" x1="-32.56" x2="2615.06" xlink:href="#b" y1="1679.61" y2="1679.61"></linearGradient></defs><path d="M1550.4 915.69a75.06 75.06 0 0 1-73.21-91.59c11.14-49.19 11.06-93-.25-130.16-8.59-28.24-24-53.57-45.77-75.31a229.5 229.5 0 0 0-40.89-32.11 74.88 74.88 0 0 1-32.46-83.83c13.46-48.06 69.29-69.94 111.67-43.59a382.69 382.69 0 0 1 61.72 47.59c41.22 39.26 70.71 85.87 87.65 138.53 20.51 63.72 22.06 135.06 4.62 212a75 75 0 0 1-73.08 58.47Z" fill="url(#a)" class="fillurl(-a)"></path><path d="M459.6 915.69a75 75 0 0 1-73.08-58.44c-17.44-77-15.89-148.31 4.62-212 16.94-52.66 46.44-99.27 87.65-138.53a382.3 382.3 0 0 1 61.73-47.59c42.37-26.35 98.2-4.47 111.66 43.59a74.88 74.88 0 0 1-32.46 83.83 229.1 229.1 0 0 0-40.88 32.11c-21.79 21.74-37.19 47.07-45.78 75.31-11.31 37.18-11.39 81-.25 130.16a75.06 75.06 0 0 1-73.21 91.59Z" fill="url(#c)" class="fillurl(-c)"></path><path d="M1265.68 1754.61H761a75 75 0 0 1-69.66-102.78l187.84-471.12a75 75 0 0 1 69.67-47.22h129a75 75 0 0 1 69.67 47.22l187.84 471.12a75 75 0 0 1-69.66 102.78Z" fill="url(#d)" class="fillurl(-d)"></path><path d="M1609.48 1141.58a232.8 232.8 0 0 0-98.87-149.66l-270-182.45V489.75a234.36 234.36 0 1 0-468.71 0v328.43l-262.39 190.56a234.36 234.36 0 0 0 101 421.09 237.38 237.38 0 0 0 37.2 2.94A232.57 232.57 0 0 0 785 1388l228.75-166.14 234.49 158.45a232.68 232.68 0 0 0 130.72 40.24 236.41 236.41 0 0 0 45-4.34 234.34 234.34 0 0 0 185.55-274.61Zm-603.25-120.46a83.82 83.82 0 0 1-29.68-5.41l-14.77-10A84.36 84.36 0 0 1 993 853a85.74 85.74 0 0 1 16.21-1.56 83.72 83.72 0 0 1 47 14.49l3 2a84.18 84.18 0 0 1 31.36 46.71v22.09a84.45 84.45 0 0 1-84.36 84.36Zm0-615.73a84.45 84.45 0 0 1 84.36 84.36v226.19a236.16 236.16 0 0 0-45-11.73A232.83 232.83 0 0 0 921.88 718V489.75a84.45 84.45 0 0 1 84.35-84.36ZM696.8 1266.62a84.36 84.36 0 1 1-99.14-136.51l182.21-132.34a232.89 232.89 0 0 0 60.65 104.71 236.68 236.68 0 0 0 38.94 31.52Zm752.49-33.29a84.4 84.4 0 0 1-117.12 22.67l-189.35-127.94 3.81-2.76a232.63 232.63 0 0 0 90.66-137l189.34 127.94a84.34 84.34 0 0 1 22.66 117.12Z" fill="url(#b)" class="fillurl(-b)"></path><circle cx="1007.61" cy="936.76" r="162.8" fill="url(#e)" class="fillurl(-e)"></circle><path d="M1006.23 1171.12a234.35 234.35 0 1 1 165.77-68.64 232.83 232.83 0 0 1-165.77 68.64Zm0-318.72a84.36 84.36 0 0 0 0 168.72 84.36 84.36 0 0 0 0-168.72Z" fill="url(#f)" class="fillurl(-f)"></path><path d="M1510.42 1754.61H518.67a75 75 0 1 1 0-150h991.75a75 75 0 0 1 0 150Z" fill="url(#g)" class="fillurl(-g)"></path></svg>