<svg data-name="Layer 2" viewBox="0 0 2010 2010" xmlns="http://www.w3.org/2000/svg" xmlns:xlink="http://www.w3.org/1999/xlink"><defs><linearGradient gradientUnits="userSpaceOnUse" id="a" x1="569.58" x2="1692.99" y1="1920.52" y2="409.12"><stop offset="0" stop-color="#0baeff" class="stop-color-69bbff"></stop><stop offset="1" stop-color="#1798ff" class="stop-color-1798ff"></stop></linearGradient><linearGradient id="b" x1="1506.74" x2="558.65" xlink:href="#a" y1="49.36" y2="2026.23"></linearGradient></defs><path d="M1005 305.62a149.94 149.94 0 0 0-150 150v675.83a75 75 0 0 1-28.48 58.83 289.64 289.64 0 0 0-57 60.33A286 286 0 0 0 717 1416.34c0 158.83 129.21 288 288 288s288-129.21 288-288a286 286 0 0 0-52.55-165.73 289.64 289.64 0 0 0-57-60.33 75 75 0 0 1-28.48-58.83V455.62a149.94 149.94 0 0 0-150-150Z" fill="#d3e2ed" class="fill-c5e8ff"></path><path d="M1079.9 1216.9c.06-1.31.1-2.62.1-4v-191.07a75 75 0 1 0-150 0V1213c0 1.33 0 2.64.1 4-80.63 30.28-138.1 108.21-138.1 199.34 0 117.47 95.57 213 213 213s213-95.57 213-213c0-91.13-57.47-169.06-138.1-199.44Zm-74.9 262.48a63 63 0 1 1 63-63 63.11 63.11 0 0 1-63 63Z" fill="url(#a)" class="fillurl(-a)"></path><path d="M1005 1854.38c-241.54 0-438-196.5-438-438a435.21 435.21 0 0 1 80-252.2 441.34 441.34 0 0 1 58-66.97V455.62a300 300 0 1 1 600 0v641.59a441.82 441.82 0 0 1 58.06 66.93 435.21 435.21 0 0 1 80 252.2c-.06 241.54-196.52 438.04-438.06 438.04Zm0-1548.76a149.94 149.94 0 0 0-150 150v675.83a75 75 0 0 1-28.48 58.83 289.64 289.64 0 0 0-57 60.33A286 286 0 0 0 717 1416.34c0 158.83 129.21 288 288 288s288-129.21 288-288a286 286 0 0 0-52.55-165.73 289.64 289.64 0 0 0-57-60.33 75 75 0 0 1-28.48-58.83V455.62a149.94 149.94 0 0 0-150-150Z" fill="url(#b)" class="fillurl(-b)"></path></svg>